<svg width="24" height="25" viewBox="0 0 24 25" fill="none" xmlns="http://www.w3.org/2000/svg">
<path d="M11.75 11.4999L12.125 11.5L12.5 11.5001H18.25C18.4489 11.5001 18.6397 11.5791 18.7803 11.7197C18.921 11.8604 19 12.0511 19 12.2501C19 12.449 18.921 12.6397 18.7803 12.7804C18.6397 12.921 18.4489 13.0001 18.25 13.0001H12.5H12.125H11.75H11.375H11H5.25C5.05109 13.0001 4.86032 12.921 4.71967 12.7804C4.57902 12.6397 4.5 12.449 4.5 12.2501C4.5 12.0511 4.57902 11.8604 4.71967 11.7197C4.86032 11.5791 5.05109 11.5001 5.25 11.5001H11L11.375 11.5L11.75 11.4999Z" fill="#020A0A"/>
</svg>
