<svg width="24" height="25" viewBox="0 0 24 25" fill="none" xmlns="http://www.w3.org/2000/svg">
<path d="M11.75 5C11.9489 5 12.1397 5.07902 12.2803 5.21967C12.421 5.36032 12.5 5.55109 12.5 5.75V11.5H18.25C18.4489 11.5 18.6397 11.579 18.7803 11.7197C18.921 11.8603 19 12.0511 19 12.25C19 12.4489 18.921 12.6397 18.7803 12.7803C18.6397 12.921 18.4489 13 18.25 13H12.5V18.75C12.5 18.9489 12.421 19.1397 12.2803 19.2803C12.1397 19.421 11.9489 19.5 11.75 19.5C11.5511 19.5 11.3603 19.421 11.2197 19.2803C11.079 19.1397 11 18.9489 11 18.75V13H5.25C5.05109 13 4.86032 12.921 4.71967 12.7803C4.57902 12.6397 4.5 12.4489 4.5 12.25C4.5 12.0511 4.57902 11.8603 4.71967 11.7197C4.86032 11.579 5.05109 11.5 5.25 11.5H11V5.75C11 5.55109 11.079 5.36032 11.2197 5.21967C11.3603 5.07902 11.5511 5 11.75 5Z" fill="#020A0A"/>
</svg>
